<svg width="800" height="800" viewBox="0 0 800 800" fill="none" xmlns="http://www.w3.org/2000/svg">
  <defs>
    <radialGradient id="archAura" cx="50%" cy="50%" r="50%">
      <stop offset="0%" stop-color="#38BDF8" stop-opacity="0.32"/>
      <stop offset="50%" stop-color="#2DD4BF" stop-opacity="0.14"/>
      <stop offset="100%" stop-color="#07131C" stop-opacity="0"/>
    </radialGradient>
    <linearGradient id="veneerGrad" x1="0" y1="0" x2="0" y2="1">
      <stop offset="0%" stop-color="#FFFFFF"/>
      <stop offset="40%" stop-color="#F8FAFC"/>
      <stop offset="80%" stop-color="#E2E8F0"/>
      <stop offset="100%" stop-color="#CBD5E1"/>
    </linearGradient>
    <linearGradient id="gumGrad" x1="0" y1="0" x2="0" y2="1">
      <stop offset="0%" stop-color="#FDA4AF"/>
      <stop offset="50%" stop-color="#F43F5E"/>
      <stop offset="100%" stop-color="#BE123C"/>
    </linearGradient>
    <linearGradient id="smileCurveGrad" x1="160" y1="460" x2="640" y2="460" gradientUnits="userSpaceOnUse">
      <stop offset="0%" stop-color="#22D3EE"/>
      <stop offset="50%" stop-color="#34D399"/>
      <stop offset="100%" stop-color="#22D3EE"/>
    </linearGradient>
    <filter id="archGlow" x="-20%" y="-20%" width="140%" height="140%">
      <feGaussianBlur stdDeviation="15" result="blur"/>
      <feComposite in="SourceGraphic" in2="blur" operator="over"/>
    </filter>
  </defs>

  <!-- Ambient Glow -->
  <circle cx="400" cy="400" r="380" fill="url(#archAura)"/>

  <!-- Golden Ratio Geometric Arc Guides -->
  <circle cx="400" cy="400" r="340" stroke="#34D399" stroke-width="1.5" stroke-dasharray="12 12" opacity="0.4"/>
  <ellipse cx="400" cy="380" rx="300" ry="180" stroke="#22D3EE" stroke-width="2" stroke-dasharray="8 8" opacity="0.45"/>

  <!-- 3D Open Mouth Aesthetic Arch Structure -->
  <g filter="url(#archGlow)">
    <!-- Natural Gingiva / Gum Line Contour -->
    <path d="M160 360 C 220 250, 320 220, 400 220 C 480 220, 580 250, 640 360 C 580 320, 480 280, 400 280 C 320 280, 220 320, 160 360 Z" 
          fill="url(#gumGrad)" opacity="0.85"/>

    <!-- Six Aesthetic Upper Teeth (Anterior Smile Zone) -->
    <!-- Left Canine -->
    <path d="M220 350 C 230 270, 270 270, 275 350 C 270 385, 230 385, 220 350 Z" 
          fill="url(#veneerGrad)" stroke="#38BDF8" stroke-width="2.5"/>
    <path d="M235 300 C 240 280, 255 280, 260 300" stroke="#FFFFFF" stroke-width="3" opacity="0.8"/>

    <!-- Left Lateral Incisor -->
    <path d="M280 330 C 290 250, 335 250, 340 330 C 335 375, 290 375, 280 330 Z" 
          fill="url(#veneerGrad)" stroke="#38BDF8" stroke-width="2.5"/>
    <path d="M295 285 C 300 265, 320 265, 325 285" stroke="#FFFFFF" stroke-width="3" opacity="0.8"/>

    <!-- Central Left Master Incisor -->
    <path d="M345 315 C 355 230, 395 230, 398 315 C 395 385, 355 385, 345 315 Z" 
          fill="url(#veneerGrad)" stroke="#22D3EE" stroke-width="3"/>
    <path d="M360 270 C 365 245, 385 245, 390 270" stroke="#FFFFFF" stroke-width="4" opacity="0.9"/>

    <!-- Central Right Master Incisor -->
    <path d="M402 315 C 405 230, 445 230, 455 315 C 445 385, 405 385, 402 315 Z" 
          fill="url(#veneerGrad)" stroke="#22D3EE" stroke-width="3"/>
    <path d="M410 270 C 415 245, 435 245, 440 270" stroke="#FFFFFF" stroke-width="4" opacity="0.9"/>

    <!-- Right Lateral Incisor -->
    <path d="M460 330 C 465 250, 510 250, 520 330 C 510 375, 465 375, 460 330 Z" 
          fill="url(#veneerGrad)" stroke="#38BDF8" stroke-width="2.5"/>
    <path d="M475 285 C 480 265, 500 265, 505 285" stroke="#FFFFFF" stroke-width="3" opacity="0.8"/>

    <!-- Right Canine -->
    <path d="M525 350 C 530 270, 570 270, 580 350 C 570 385, 530 385, 525 350 Z" 
          fill="url(#veneerGrad)" stroke="#38BDF8" stroke-width="2.5"/>
    <path d="M540 300 C 545 280, 560 280, 565 300" stroke="#FFFFFF" stroke-width="3" opacity="0.8"/>

    <!-- Harmonized Smile Line Contour (Lower Arc) -->
    <path d="M 160 440 Q 400 580 640 440" stroke="url(#smileCurveGrad)" stroke-width="5" stroke-linecap="round"/>

    <!-- Ceramic Specular Highlights -->
    <circle cx="395" cy="300" r="6" fill="#FFFFFF" opacity="0.9"/>
    <circle cx="405" cy="300" r="6" fill="#FFFFFF" opacity="0.9"/>
    <circle cx="340" cy="340" r="4" fill="#34D399"/>
    <circle cx="460" cy="340" r="4" fill="#34D399"/>
  </g>

  <!-- Golden Ratio Aesthetic Verification HUD -->
  <text x="180" y="160" fill="#34D399" font-size="14" font-family="monospace" font-weight="bold" letter-spacing="3">
    [✓] ARCH RESTORATION: FULL SMILE SYMMETRY
  </text>
  <text x="180" y="650" fill="#22D3EE" font-size="13" font-family="monospace" font-weight="bold" letter-spacing="2">
    GOLDEN PROPORTION: 1 : 1.618 | TRANSLUCENCY: OPTIMAL
  </text>
</svg>
